<?xml version="1.0" encoding="utf-8"?>
<!-- Generator: Adobe Illustrator 22.0.1, SVG Export Plug-In . SVG Version: 6.00 Build 0)  -->
<svg version="1.1" xmlns="http://www.w3.org/2000/svg" xmlns:xlink="http://www.w3.org/1999/xlink" x="0px" y="0px" width="300px"
	 height="300px" viewBox="0 0 300 300" style="enable-background:new 0 0 300 300;" xml:space="preserve">
<style type="text/css">
	.st0{fill:#F26728;}
	.st1{fill:#E84A3D;}
	.st2{fill:#2E368F;}
	.st3{fill:#1D7186;}
	.st4{fill:#F79327;}
	.st5{fill:#4D9C8D;}
	.st6{fill:#47A5C9;}
	.st7{fill:#FCB91A;}
</style>
<g id="white">
</g>
<g id="color">
	<g>
		<g>
			<path class="st0" d="M245.1,14.5c-12-1.4-24.3,9.1-36.9,26.8c-12.7,17.7-31.9,46.4-58,46.4l0,0c-25.7,0-44.9-28.3-58-46.4
				C79.6,23.6,66.9,12.7,55.3,14.2c-2.5,0.4-8,1.8-7.6,4c0.4,8,8.7,26.1,8.7,26.1c4.7,10.1,9.4,19.2,13.8,27.5
				c78.2,42.7,80.1,70.3,80.1,78.2l0,0c0,1.4,0,3.3-0.4,5.4h0.4l0,0h0.4c-0.4-2.2-0.4-4-0.4-5.4l0,0c0-8,1.8-35.5,80.1-78.2
				c4.3-8.3,9.1-17.4,13.8-27.5c0,0,8.3-18.1,8.7-26.1C253.1,16,247.6,14.5,245.1,14.5"/>
			<path class="st1" d="M263.9,208c-17.7-12.7-46.4-31.9-46.4-58l0,0c0-25.7,28.3-44.9,46.4-58c17.7-12.7,28.6-25.4,27.2-36.9
				c-0.4-2.5-1.8-8-4-7.6c-8,0.4-26.1,8.7-26.1,8.7c-11.6,5.4-21.7,10.9-31.2,15.9c-26.4,49.6-47.5,69.9-61.6,77.9
				c14.1,8,34.8,28.3,61.9,78.2c9.4,5.1,19.6,10.5,31.2,15.9c0,0,18.1,8.3,26.1,8.7c2.2,0,3.6-5.4,4-7.6
				C292.6,233.3,282.1,221,263.9,208"/>
			<path class="st2" d="M131.7,150c-14.1-8-34.8-28.3-61.9-78.2c-9.4-5.1-19.6-10.5-31.2-15.9c0,0-18.1-8.3-26.1-8.7
				c-2.2,0-3.6,5.4-4,7.6c-1.4,12,9.1,24.3,27.2,36.9c17.7,12.7,46.4,31.9,46.4,58l0,0c0,25.7-28.3,44.9-46.4,58
				C18,220.3,7.1,232.9,8.6,244.5c0.4,2.5,1.8,8,4,7.6c8-0.4,26.1-8.7,26.1-8.7c11.6-5.4,21.7-10.9,31.2-15.9
				C96.6,178.3,117.6,158.3,131.7,150"/>
			<path class="st3" d="M150.6,155.4c0-8.3-0.4-2.9-0.4-2.9s-0.4-5.4-0.4,2.9c-2.2,12-14.1,36.9-79.7,72.8
				c-4.3,8.3-9.1,17.4-13.8,27.5c0,0-8.3,18.1-8.7,26.1c0,2.2,5.4,3.6,7.6,4c12,1.4,24.3-9.1,36.9-27.2c12.7-17.7,31.9-46.4,58-46.4
				l0,0c25.7,0,44.9,28.3,58,46.4c12.7,17.7,25.4,28.6,36.9,27.2c2.5-0.4,8-1.8,7.6-4c-0.4-8-8.7-26.1-8.7-26.1
				c-4.7-10.1-9.4-19.2-13.8-27.5C164.3,192.4,152.7,167.4,150.6,155.4"/>
			<path class="st4" d="M168.3,150c-8.7,5.1-14.5,5.4-17.7,5.4c2.2,12,14.1,36.9,79.7,72.8C203.5,178.3,182.4,158.3,168.3,150"/>
			<path class="st5" d="M149.5,155.4c-3.3,0-9.4-0.4-17.7-5.4c-14.1,8-34.8,28.3-61.9,78.2C135.7,192.4,147.3,167.4,149.5,155.4"/>
			<path class="st6" d="M149.8,150c0-8-1.8-35.5-80.1-78.2c43.1,80.4,71,83.7,79.7,83.7C149.8,153.3,149.8,151.4,149.8,150
				L149.8,150z"/>
			<path class="st7" d="M230.3,71.8c-78.6,43.1-80.4,70.3-80.4,78.2l0,0c0,1.4,0,3.3,0.4,5.4C159.3,155.4,186.8,152.2,230.3,71.8"/>
		</g>
	</g>
</g>
</svg>
